<mxfile host="app.diagrams.net" agent="Mozilla/5.0 (Windows NT 10.0; Win64; x64) AppleWebKit/537.36 (KHTML, like Gecko) Chrome/140.0.0.0 Safari/537.36" version="28.2.5">
  <diagram name="PÃ¡gina-1" id="lbejHsJ3xawZsf0yX-TW">
    <mxGraphModel dx="1603" dy="865" grid="1" gridSize="10" guides="1" tooltips="1" connect="1" arrows="1" fold="1" page="1" pageScale="1" pageWidth="827" pageHeight="1169" math="0" shadow="0">
      <root>
        <mxCell id="0" />
        <mxCell id="1" parent="0" />
        <mxCell id="gNrKxYqXhcrpiJr3xEoq-1" value="Cuenta/Usuario" style="whiteSpace=wrap;html=1;align=center;fillColor=#f8cecc;strokeColor=#b85450;" vertex="1" parent="1">
          <mxGeometry x="413.5" y="80" width="100" height="40" as="geometry" />
        </mxCell>
        <mxCell id="gNrKxYqXhcrpiJr3xEoq-7" value="Nombre" style="ellipse;whiteSpace=wrap;html=1;align=center;fillColor=#dae8fc;strokeColor=#6c8ebf;" vertex="1" parent="1">
          <mxGeometry x="414" y="20" width="100" height="40" as="geometry" />
        </mxCell>
        <mxCell id="gNrKxYqXhcrpiJr3xEoq-8" value="Correo" style="ellipse;whiteSpace=wrap;html=1;align=center;fillColor=#dae8fc;strokeColor=#6c8ebf;" vertex="1" parent="1">
          <mxGeometry x="340" y="150" width="100" height="40" as="geometry" />
        </mxCell>
        <mxCell id="gNrKxYqXhcrpiJr3xEoq-9" value="Password" style="ellipse;whiteSpace=wrap;html=1;align=center;fillColor=#dae8fc;strokeColor=#6c8ebf;" vertex="1" parent="1">
          <mxGeometry x="540" y="30" width="100" height="40" as="geometry" />
        </mxCell>
        <mxCell id="gNrKxYqXhcrpiJr3xEoq-10" value="Login" style="ellipse;whiteSpace=wrap;html=1;align=center;fontStyle=4;fillColor=#dae8fc;strokeColor=#6c8ebf;" vertex="1" parent="1">
          <mxGeometry x="600" y="130" width="100" height="40" as="geometry" />
        </mxCell>
        <mxCell id="gNrKxYqXhcrpiJr3xEoq-11" value="nick" style="ellipse;whiteSpace=wrap;html=1;align=center;fillColor=#dae8fc;strokeColor=#6c8ebf;" vertex="1" parent="1">
          <mxGeometry x="600" y="80" width="100" height="40" as="geometry" />
        </mxCell>
        <mxCell id="gNrKxYqXhcrpiJr3xEoq-12" value="" style="endArrow=none;html=1;rounded=0;exitX=0.5;exitY=1;exitDx=0;exitDy=0;entryX=0.5;entryY=0;entryDx=0;entryDy=0;" edge="1" parent="1" source="gNrKxYqXhcrpiJr3xEoq-7" target="gNrKxYqXhcrpiJr3xEoq-1">
          <mxGeometry relative="1" as="geometry">
            <mxPoint x="250" y="410" as="sourcePoint" />
            <mxPoint x="410" y="410" as="targetPoint" />
          </mxGeometry>
        </mxCell>
        <mxCell id="gNrKxYqXhcrpiJr3xEoq-13" value="" style="endArrow=none;html=1;rounded=0;exitX=0.5;exitY=0;exitDx=0;exitDy=0;entryX=0;entryY=1;entryDx=0;entryDy=0;" edge="1" parent="1" source="gNrKxYqXhcrpiJr3xEoq-8" target="gNrKxYqXhcrpiJr3xEoq-1">
          <mxGeometry relative="1" as="geometry">
            <mxPoint x="220" y="410" as="sourcePoint" />
            <mxPoint x="380" y="410" as="targetPoint" />
          </mxGeometry>
        </mxCell>
        <mxCell id="gNrKxYqXhcrpiJr3xEoq-14" value="" style="endArrow=none;html=1;rounded=0;entryX=0;entryY=0.5;entryDx=0;entryDy=0;exitX=1;exitY=0.25;exitDx=0;exitDy=0;" edge="1" parent="1" source="gNrKxYqXhcrpiJr3xEoq-1" target="gNrKxYqXhcrpiJr3xEoq-9">
          <mxGeometry relative="1" as="geometry">
            <mxPoint x="480" y="320" as="sourcePoint" />
            <mxPoint x="640" y="320" as="targetPoint" />
          </mxGeometry>
        </mxCell>
        <mxCell id="gNrKxYqXhcrpiJr3xEoq-15" value="" style="endArrow=none;html=1;rounded=0;exitX=1;exitY=0.5;exitDx=0;exitDy=0;entryX=0;entryY=0;entryDx=0;entryDy=0;" edge="1" parent="1" source="gNrKxYqXhcrpiJr3xEoq-1" target="gNrKxYqXhcrpiJr3xEoq-11">
          <mxGeometry relative="1" as="geometry">
            <mxPoint x="470" y="500" as="sourcePoint" />
            <mxPoint x="630" y="500" as="targetPoint" />
          </mxGeometry>
        </mxCell>
        <mxCell id="gNrKxYqXhcrpiJr3xEoq-16" value="" style="endArrow=none;html=1;rounded=0;exitX=1;exitY=1;exitDx=0;exitDy=0;entryX=0;entryY=0;entryDx=0;entryDy=0;" edge="1" parent="1" source="gNrKxYqXhcrpiJr3xEoq-1" target="gNrKxYqXhcrpiJr3xEoq-10">
          <mxGeometry relative="1" as="geometry">
            <mxPoint x="340" y="440" as="sourcePoint" />
            <mxPoint x="500" y="440" as="targetPoint" />
          </mxGeometry>
        </mxCell>
        <mxCell id="gNrKxYqXhcrpiJr3xEoq-17" value="Avatar" style="whiteSpace=wrap;html=1;align=center;fillColor=#f8cecc;strokeColor=#b85450;" vertex="1" parent="1">
          <mxGeometry x="314" y="320" width="100" height="40" as="geometry" />
        </mxCell>
        <mxCell id="gNrKxYqXhcrpiJr3xEoq-18" value="Nivel" style="ellipse;whiteSpace=wrap;html=1;align=center;fillColor=#dae8fc;strokeColor=#6c8ebf;" vertex="1" parent="1">
          <mxGeometry x="530" y="280" width="100" height="40" as="geometry" />
        </mxCell>
        <mxCell id="gNrKxYqXhcrpiJr3xEoq-19" value="Aspecto" style="ellipse;whiteSpace=wrap;html=1;align=center;fillColor=#dae8fc;strokeColor=#6c8ebf;" vertex="1" parent="1">
          <mxGeometry x="200" y="270" width="100" height="40" as="geometry" />
        </mxCell>
        <mxCell id="gNrKxYqXhcrpiJr3xEoq-20" value="Nick" style="ellipse;whiteSpace=wrap;html=1;align=center;fontStyle=4;fillColor=#dae8fc;strokeColor=#6c8ebf;" vertex="1" parent="1">
          <mxGeometry x="550" y="400" width="100" height="40" as="geometry" />
        </mxCell>
        <mxCell id="gNrKxYqXhcrpiJr3xEoq-21" value="" style="endArrow=none;html=1;rounded=0;exitX=1;exitY=0.5;exitDx=0;exitDy=0;entryX=0.25;entryY=0;entryDx=0;entryDy=0;" edge="1" parent="1" source="gNrKxYqXhcrpiJr3xEoq-19" target="gNrKxYqXhcrpiJr3xEoq-17">
          <mxGeometry relative="1" as="geometry">
            <mxPoint x="320" y="600" as="sourcePoint" />
            <mxPoint x="480" y="600" as="targetPoint" />
          </mxGeometry>
        </mxCell>
        <mxCell id="gNrKxYqXhcrpiJr3xEoq-22" value="" style="endArrow=none;html=1;rounded=0;exitX=1;exitY=0.5;exitDx=0;exitDy=0;entryX=0;entryY=0.5;entryDx=0;entryDy=0;" edge="1" parent="1" source="gNrKxYqXhcrpiJr3xEoq-17" target="gNrKxYqXhcrpiJr3xEoq-18">
          <mxGeometry relative="1" as="geometry">
            <mxPoint x="480" y="580" as="sourcePoint" />
            <mxPoint x="640" y="580" as="targetPoint" />
          </mxGeometry>
        </mxCell>
        <mxCell id="gNrKxYqXhcrpiJr3xEoq-23" value="" style="endArrow=none;html=1;rounded=0;exitX=1;exitY=0.75;exitDx=0;exitDy=0;entryX=0;entryY=0.5;entryDx=0;entryDy=0;" edge="1" parent="1" source="gNrKxYqXhcrpiJr3xEoq-17" target="gNrKxYqXhcrpiJr3xEoq-20">
          <mxGeometry relative="1" as="geometry">
            <mxPoint x="380" y="670" as="sourcePoint" />
            <mxPoint x="540" y="670" as="targetPoint" />
          </mxGeometry>
        </mxCell>
        <mxCell id="gNrKxYqXhcrpiJr3xEoq-24" value="Juegos" style="whiteSpace=wrap;html=1;align=center;fillColor=#f8cecc;strokeColor=#b85450;" vertex="1" parent="1">
          <mxGeometry x="370" y="600" width="100" height="40" as="geometry" />
        </mxCell>
        <mxCell id="gNrKxYqXhcrpiJr3xEoq-25" value="ID_Cod" style="ellipse;whiteSpace=wrap;html=1;align=center;fontStyle=4;fillColor=#dae8fc;strokeColor=#6c8ebf;" vertex="1" parent="1">
          <mxGeometry x="340" y="710" width="100" height="40" as="geometry" />
        </mxCell>
        <mxCell id="gNrKxYqXhcrpiJr3xEoq-26" value="Nombre" style="ellipse;whiteSpace=wrap;html=1;align=center;fillColor=#dae8fc;strokeColor=#6c8ebf;" vertex="1" parent="1">
          <mxGeometry x="470" y="640" width="100" height="40" as="geometry" />
        </mxCell>
        <mxCell id="gNrKxYqXhcrpiJr3xEoq-27" value="Descripcion" style="ellipse;whiteSpace=wrap;html=1;align=center;fillColor=#dae8fc;strokeColor=#6c8ebf;" vertex="1" parent="1">
          <mxGeometry x="500" y="580" width="100" height="40" as="geometry" />
        </mxCell>
        <mxCell id="gNrKxYqXhcrpiJr3xEoq-28" value="" style="endArrow=none;html=1;rounded=0;exitX=1;exitY=0;exitDx=0;exitDy=0;entryX=0.5;entryY=1;entryDx=0;entryDy=0;" edge="1" parent="1" source="gNrKxYqXhcrpiJr3xEoq-25" target="gNrKxYqXhcrpiJr3xEoq-24">
          <mxGeometry relative="1" as="geometry">
            <mxPoint x="380" y="800" as="sourcePoint" />
            <mxPoint x="540" y="800" as="targetPoint" />
          </mxGeometry>
        </mxCell>
        <mxCell id="gNrKxYqXhcrpiJr3xEoq-29" value="" style="endArrow=none;html=1;rounded=0;exitX=1;exitY=0.75;exitDx=0;exitDy=0;entryX=0;entryY=0;entryDx=0;entryDy=0;" edge="1" parent="1" source="gNrKxYqXhcrpiJr3xEoq-24" target="gNrKxYqXhcrpiJr3xEoq-26">
          <mxGeometry relative="1" as="geometry">
            <mxPoint x="430" y="810" as="sourcePoint" />
            <mxPoint x="590" y="810" as="targetPoint" />
          </mxGeometry>
        </mxCell>
        <mxCell id="gNrKxYqXhcrpiJr3xEoq-30" value="" style="endArrow=none;html=1;rounded=0;exitX=1;exitY=0;exitDx=0;exitDy=0;entryX=0;entryY=0.5;entryDx=0;entryDy=0;" edge="1" parent="1" source="gNrKxYqXhcrpiJr3xEoq-24" target="gNrKxYqXhcrpiJr3xEoq-27">
          <mxGeometry relative="1" as="geometry">
            <mxPoint x="490" y="660" as="sourcePoint" />
            <mxPoint x="650" y="660" as="targetPoint" />
          </mxGeometry>
        </mxCell>
        <mxCell id="gNrKxYqXhcrpiJr3xEoq-35" value="Se creara" style="shape=rhombus;perimeter=rhombusPerimeter;whiteSpace=wrap;html=1;align=center;fillColor=#fff2cc;strokeColor=#d6b656;" vertex="1" parent="1">
          <mxGeometry x="394" y="210" width="120" height="60" as="geometry" />
        </mxCell>
        <mxCell id="gNrKxYqXhcrpiJr3xEoq-36" value="" style="fontSize=12;html=1;endArrow=ERone;endFill=1;rounded=0;entryX=0.5;entryY=1;entryDx=0;entryDy=0;exitX=0.5;exitY=0;exitDx=0;exitDy=0;" edge="1" parent="1" source="gNrKxYqXhcrpiJr3xEoq-35" target="gNrKxYqXhcrpiJr3xEoq-1">
          <mxGeometry width="100" height="100" relative="1" as="geometry">
            <mxPoint x="360" y="380" as="sourcePoint" />
            <mxPoint x="460" y="280" as="targetPoint" />
          </mxGeometry>
        </mxCell>
        <mxCell id="gNrKxYqXhcrpiJr3xEoq-40" value="" style="fontSize=12;html=1;endArrow=ERone;endFill=1;rounded=0;exitX=0.5;exitY=1;exitDx=0;exitDy=0;entryX=0.5;entryY=0;entryDx=0;entryDy=0;" edge="1" parent="1" source="gNrKxYqXhcrpiJr3xEoq-35" target="gNrKxYqXhcrpiJr3xEoq-17">
          <mxGeometry width="100" height="100" relative="1" as="geometry">
            <mxPoint x="-50" y="590" as="sourcePoint" />
            <mxPoint x="470" y="290" as="targetPoint" />
          </mxGeometry>
        </mxCell>
        <mxCell id="gNrKxYqXhcrpiJr3xEoq-41" value="Registrado" style="shape=rhombus;perimeter=rhombusPerimeter;whiteSpace=wrap;html=1;align=center;fillColor=#fff2cc;strokeColor=#d6b656;" vertex="1" parent="1">
          <mxGeometry x="320" y="470" width="120" height="60" as="geometry" />
        </mxCell>
        <mxCell id="gNrKxYqXhcrpiJr3xEoq-42" value="" style="fontSize=12;html=1;endArrow=ERmany;rounded=0;entryX=0.5;entryY=1;entryDx=0;entryDy=0;exitX=0.5;exitY=0;exitDx=0;exitDy=0;" edge="1" parent="1" source="gNrKxYqXhcrpiJr3xEoq-41" target="gNrKxYqXhcrpiJr3xEoq-17">
          <mxGeometry width="100" height="100" relative="1" as="geometry">
            <mxPoint x="240" y="580" as="sourcePoint" />
            <mxPoint x="340" y="480" as="targetPoint" />
          </mxGeometry>
        </mxCell>
        <mxCell id="gNrKxYqXhcrpiJr3xEoq-43" value="" style="fontSize=12;html=1;endArrow=ERone;endFill=1;rounded=0;entryX=0.5;entryY=0;entryDx=0;entryDy=0;exitX=0.5;exitY=1;exitDx=0;exitDy=0;" edge="1" parent="1" source="gNrKxYqXhcrpiJr3xEoq-41" target="gNrKxYqXhcrpiJr3xEoq-24">
          <mxGeometry width="100" height="100" relative="1" as="geometry">
            <mxPoint x="240" y="580" as="sourcePoint" />
            <mxPoint x="340" y="480" as="targetPoint" />
          </mxGeometry>
        </mxCell>
        <mxCell id="gNrKxYqXhcrpiJr3xEoq-45" value="Partidas" style="whiteSpace=wrap;html=1;align=center;fillColor=#f8cecc;strokeColor=#b85450;" vertex="1" parent="1">
          <mxGeometry x="60" y="600" width="100" height="40" as="geometry" />
        </mxCell>
        <mxCell id="gNrKxYqXhcrpiJr3xEoq-46" value="ID_Partida" style="ellipse;whiteSpace=wrap;html=1;align=center;fontStyle=4;fillColor=#dae8fc;strokeColor=#6c8ebf;" vertex="1" parent="1">
          <mxGeometry y="460" width="100" height="40" as="geometry" />
        </mxCell>
        <mxCell id="gNrKxYqXhcrpiJr3xEoq-47" value="Password" style="ellipse;whiteSpace=wrap;html=1;align=center;fillColor=#dae8fc;strokeColor=#6c8ebf;" vertex="1" parent="1">
          <mxGeometry y="650" width="100" height="40" as="geometry" />
        </mxCell>
        <mxCell id="gNrKxYqXhcrpiJr3xEoq-48" value="Hora" style="ellipse;whiteSpace=wrap;html=1;align=center;fillColor=#dae8fc;strokeColor=#6c8ebf;" vertex="1" parent="1">
          <mxGeometry y="750" width="100" height="40" as="geometry" />
        </mxCell>
        <mxCell id="gNrKxYqXhcrpiJr3xEoq-49" value="Fecha" style="ellipse;whiteSpace=wrap;html=1;align=center;fillColor=#dae8fc;strokeColor=#6c8ebf;" vertex="1" parent="1">
          <mxGeometry x="80" y="500" width="100" height="40" as="geometry" />
        </mxCell>
        <mxCell id="gNrKxYqXhcrpiJr3xEoq-50" value="Nombre" style="ellipse;whiteSpace=wrap;html=1;align=center;fillColor=#dae8fc;strokeColor=#6c8ebf;" vertex="1" parent="1">
          <mxGeometry x="180" y="530" width="100" height="40" as="geometry" />
        </mxCell>
        <mxCell id="gNrKxYqXhcrpiJr3xEoq-51" value="Estado" style="ellipse;whiteSpace=wrap;html=1;align=center;fillColor=#dae8fc;strokeColor=#6c8ebf;" vertex="1" parent="1">
          <mxGeometry x="90" y="700" width="100" height="40" as="geometry" />
        </mxCell>
        <mxCell id="gNrKxYqXhcrpiJr3xEoq-52" value="Finalizo" style="ellipse;whiteSpace=wrap;html=1;align=center;fillColor=#e1d5e7;strokeColor=#9673a6;" vertex="1" parent="1">
          <mxGeometry x="170" y="780" width="100" height="40" as="geometry" />
        </mxCell>
        <mxCell id="gNrKxYqXhcrpiJr3xEoq-53" value="Curso" style="ellipse;whiteSpace=wrap;html=1;align=center;fillColor=#e1d5e7;strokeColor=#9673a6;" vertex="1" parent="1">
          <mxGeometry x="50" y="810" width="100" height="40" as="geometry" />
        </mxCell>
        <mxCell id="gNrKxYqXhcrpiJr3xEoq-54" value="" style="endArrow=none;html=1;rounded=0;exitX=0;exitY=0;exitDx=0;exitDy=0;entryX=0.5;entryY=1;entryDx=0;entryDy=0;" edge="1" parent="1" source="gNrKxYqXhcrpiJr3xEoq-45" target="gNrKxYqXhcrpiJr3xEoq-46">
          <mxGeometry relative="1" as="geometry">
            <mxPoint x="260" y="510" as="sourcePoint" />
            <mxPoint x="420" y="510" as="targetPoint" />
          </mxGeometry>
        </mxCell>
        <mxCell id="gNrKxYqXhcrpiJr3xEoq-56" value="" style="endArrow=none;html=1;rounded=0;exitX=0.5;exitY=0;exitDx=0;exitDy=0;entryX=0.5;entryY=1;entryDx=0;entryDy=0;" edge="1" parent="1" source="gNrKxYqXhcrpiJr3xEoq-45" target="gNrKxYqXhcrpiJr3xEoq-49">
          <mxGeometry relative="1" as="geometry">
            <mxPoint x="50" y="620" as="sourcePoint" />
            <mxPoint x="50" y="570" as="targetPoint" />
          </mxGeometry>
        </mxCell>
        <mxCell id="gNrKxYqXhcrpiJr3xEoq-57" value="" style="endArrow=none;html=1;rounded=0;exitX=1;exitY=0.25;exitDx=0;exitDy=0;entryX=0;entryY=0.5;entryDx=0;entryDy=0;" edge="1" parent="1" source="gNrKxYqXhcrpiJr3xEoq-45" target="gNrKxYqXhcrpiJr3xEoq-50">
          <mxGeometry relative="1" as="geometry">
            <mxPoint x="180" y="670" as="sourcePoint" />
            <mxPoint x="180" y="620" as="targetPoint" />
          </mxGeometry>
        </mxCell>
        <mxCell id="gNrKxYqXhcrpiJr3xEoq-58" value="" style="endArrow=none;html=1;rounded=0;exitX=0.5;exitY=0;exitDx=0;exitDy=0;entryX=1;entryY=1;entryDx=0;entryDy=0;" edge="1" parent="1" source="gNrKxYqXhcrpiJr3xEoq-51" target="gNrKxYqXhcrpiJr3xEoq-45">
          <mxGeometry relative="1" as="geometry">
            <mxPoint x="140" y="720" as="sourcePoint" />
            <mxPoint x="140" y="670" as="targetPoint" />
          </mxGeometry>
        </mxCell>
        <mxCell id="gNrKxYqXhcrpiJr3xEoq-59" value="" style="endArrow=none;html=1;rounded=0;exitX=0.5;exitY=0;exitDx=0;exitDy=0;entryX=0.75;entryY=1;entryDx=0;entryDy=0;" edge="1" parent="1" source="gNrKxYqXhcrpiJr3xEoq-48" target="gNrKxYqXhcrpiJr3xEoq-45">
          <mxGeometry relative="1" as="geometry">
            <mxPoint x="70" y="720" as="sourcePoint" />
            <mxPoint x="70" y="670" as="targetPoint" />
          </mxGeometry>
        </mxCell>
        <mxCell id="gNrKxYqXhcrpiJr3xEoq-60" value="" style="endArrow=none;html=1;rounded=0;exitX=0.5;exitY=0;exitDx=0;exitDy=0;entryX=0;entryY=1;entryDx=0;entryDy=0;" edge="1" parent="1" source="gNrKxYqXhcrpiJr3xEoq-47" target="gNrKxYqXhcrpiJr3xEoq-45">
          <mxGeometry relative="1" as="geometry">
            <mxPoint x="-20" y="730" as="sourcePoint" />
            <mxPoint x="-20" y="680" as="targetPoint" />
          </mxGeometry>
        </mxCell>
        <mxCell id="gNrKxYqXhcrpiJr3xEoq-61" value="" style="endArrow=none;html=1;rounded=0;exitX=0.5;exitY=0;exitDx=0;exitDy=0;entryX=0;entryY=1;entryDx=0;entryDy=0;" edge="1" parent="1" source="gNrKxYqXhcrpiJr3xEoq-53" target="gNrKxYqXhcrpiJr3xEoq-51">
          <mxGeometry relative="1" as="geometry">
            <mxPoint x="190" y="840" as="sourcePoint" />
            <mxPoint x="190" y="790" as="targetPoint" />
          </mxGeometry>
        </mxCell>
        <mxCell id="gNrKxYqXhcrpiJr3xEoq-62" value="" style="endArrow=none;html=1;rounded=0;exitX=0.5;exitY=0;exitDx=0;exitDy=0;entryX=1;entryY=1;entryDx=0;entryDy=0;" edge="1" parent="1" source="gNrKxYqXhcrpiJr3xEoq-52" target="gNrKxYqXhcrpiJr3xEoq-51">
          <mxGeometry relative="1" as="geometry">
            <mxPoint x="250" y="830" as="sourcePoint" />
            <mxPoint x="250" y="780" as="targetPoint" />
          </mxGeometry>
        </mxCell>
        <mxCell id="gNrKxYqXhcrpiJr3xEoq-63" value="Tienen partidas" style="shape=rhombus;perimeter=rhombusPerimeter;whiteSpace=wrap;html=1;align=center;fillColor=#fff2cc;strokeColor=#d6b656;" vertex="1" parent="1">
          <mxGeometry x="210" y="590" width="120" height="60" as="geometry" />
        </mxCell>
        <mxCell id="gNrKxYqXhcrpiJr3xEoq-64" value="" style="edgeStyle=entityRelationEdgeStyle;fontSize=12;html=1;endArrow=ERone;endFill=1;rounded=0;entryX=0;entryY=0.5;entryDx=0;entryDy=0;exitX=1;exitY=0.5;exitDx=0;exitDy=0;" edge="1" parent="1" source="gNrKxYqXhcrpiJr3xEoq-63" target="gNrKxYqXhcrpiJr3xEoq-24">
          <mxGeometry width="100" height="100" relative="1" as="geometry">
            <mxPoint x="290" y="700" as="sourcePoint" />
            <mxPoint x="390" y="600" as="targetPoint" />
          </mxGeometry>
        </mxCell>
        <mxCell id="gNrKxYqXhcrpiJr3xEoq-65" value="" style="edgeStyle=entityRelationEdgeStyle;fontSize=12;html=1;endArrow=ERmany;rounded=0;entryX=1;entryY=0.5;entryDx=0;entryDy=0;exitX=0;exitY=0.5;exitDx=0;exitDy=0;" edge="1" parent="1" source="gNrKxYqXhcrpiJr3xEoq-63" target="gNrKxYqXhcrpiJr3xEoq-45">
          <mxGeometry width="100" height="100" relative="1" as="geometry">
            <mxPoint x="290" y="700" as="sourcePoint" />
            <mxPoint x="390" y="600" as="targetPoint" />
          </mxGeometry>
        </mxCell>
      </root>
    </mxGraphModel>
  </diagram>
</mxfile>
